{"title":"Arctic Blast 2010 DVDrip English Klam","uid":6926678,"size":1490322170,"categoryP":"video","categoryS":"movies","magnet":"?xt=urn:btih:80fa9ec75b1bc40392e8c94b08f5ddc97f51dc7f&amp;dn=Arctic+Blast+2010+DVDrip+English+Klam&amp;tr=udp%3A%2F%2Ftracker.openbittorrent.com%3A80&amp;tr=udp%3A%2F%2Fopen.demonii.com%3A1337&amp;tr=udp%3A%2F%2Ftracker.coppersurfer.tk%3A6969&amp;tr=udp%3A%2F%2Fexodus.desync.com%3A6969","seeders":1,"leechers":1,"uploader":"Klambake","files":-1,"time":1325530700,"description":"With: Michael Shanks, Alexandra Davies and Indiana Evans\n\nEen onderzoeksschip van de VS ligt in de Antarctische oceaan op 150 kilometer van de kust van AustraliÃƒÂ« voor een onderzoek naar de ozonlaag. Plots wordt het schip getroffen door een golf van ijskoude lucht die alles en iedereen in een mum van tijd bevriest. Jack Tate, een briljante natuurkundige verliest vanaf het land het contact met het schip. Wanneer Jack achter de bizarre dood van zijn collega's komt gaat hij op onderzoek uit. Door de verschillende puzzelstukken samen te voegen kan hij maar een ding concluderen: Er volgt een nieuwe ijstijd! Maar wanneer Jack zijn ontdekking voorlegt aan de wetenschap wordt hij aangekeken op zijn slechte verleden en weigeren ze te luisteren naar zijn oplossing om de planeet te redden.\n\nWhen a solar eclipse sends a colossal blast of super chilled air towards the earth, it then sets off a catastrophic chain of events that threatens to engulf the world in ice and begin a new Ice Age. \n\n------------------------ Dutch Friends ------------------------\n---------------------------------------------------------------\n- Bezoek ook eens mijn vrienden op: &lt;a href=&quot; http://www.Film-Test.nl&quot; rel=&quot;nofollow&quot; target=&quot;_NEW&quot;&gt; http://www.Film-Test.nl&lt;/a&gt; --\n----- voor mijn Nederlandse Sync. ondertitels ---- en meer ----\n------- http://www.Film-Test.nl ---- voor Films en meer -------\n---------------------------------------------------------------\n\nGeneral:\n\nComplete name                    : Arctic Blast\\Arctic Blast.avi\nFormat                           : AVI\nFormat/Info                      : Audio Video Interleave\nFile size                        : 1.39 GiB\nDuration                         : 1h 27mn\nOverall bit rate                 : 2 258 Kbps\n\nVideo:\n\nFormat                           : MPEG-4 Visual\nFormat profile                   : Simple@L3\nFormat settings, BVOP            : No\nFormat settings, QPel            : No\nFormat settings, GMC             : No warppoints\nFormat settings, Matrix          : Default (H.263)\nCodec ID                         : XVID\nCodec ID/Hint                    : XviD\nDuration                         : 1h 27mn\nBit rate                         : 1 799 Kbps\nWidth                            : 704 pixels\nHeight                           : 396 pixels\nDisplay aspect ratio             : 16:9\nFrame rate                       : 25.000 fps\nColor space                      : YUV\nChroma subsampling               : 4:2:0\nBit depth                        : 8 bits\nScan type                        : Progressive\nCompression mode                 : Lossy\nBits/(Pixel*Frame)               : 0.258\nStream size                      : 1.10 GiB (80%)\nWriting library                  : XviD 1.1.2 (UTC 2006-11-01)\n\nAudio:\n\nFormat                           : AC-3\nFormat/Info                      : Audio Coding 3\nMode extension                   : CM (complete main)\nCodec ID                         : 2000\nDuration                         : 1h 27mn\nBit rate mode                    : Constant\nBit rate                         : 448 Kbps\nChannel(s)                       : 6 channels\nChannel positions                : Front: L C R, Side: L R, LFE\nSampling rate                    : 48.0 KHz\nBit depth                        : 16 bits\nCompression mode                 : Lossy\nStream size                      : 281 MiB (20%)\nAlignment                        : Aligned on interleaves\nInterleave, duration             : 32 ms (0.80 video frame)\nInterleave, preload duration     : 256 ms\n\n\n","torrent":{"xt":"urn:btih:80fa9ec75b1bc40392e8c94b08f5ddc97f51dc7f","amp;dn":"Arctic+Blast+2010+DVDrip+English+Klam","amp;tr":["udp%3A%2F%2Ftracker.openbittorrent.com%3A80","udp%3A%2F%2Fopen.demonii.com%3A1337","udp%3A%2F%2Ftracker.coppersurfer.tk%3A6969","udp%3A%2F%2Fexodus.desync.com%3A6969"],"infoHash":"80fa9ec75b1bc40392e8c94b08f5ddc97f51dc7f","infoHashBuffer":{"type":"Buffer","data":[128,250,158,199,91,27,196,3,146,232,201,75,8,245,221,201,127,81,220,127]},"announce":[],"urlList":[]}}